<svg xmlns="http://www.w3.org/2000/svg" width="36" height="44" viewBox="0 0 36 44"><path d="M4,44a4,4,0,0,1-4-4V4A4,4,0,0,1,4,0H24a4,4,0,0,1,4,4v6H24V6H4V38H24V34h4v6a4,4,0,0,1-4,4ZM26.825,31.787a1.7,1.7,0,0,0-1.651,0A1.713,1.713,0,0,1,24.35,32a1.693,1.693,0,0,1-1.334-.642,1.7,1.7,0,0,0-1.334-.643,1.891,1.891,0,0,0-.191.011,1.7,1.7,0,0,1-1.83-1.222A1.7,1.7,0,0,0,18.5,28.337a1.7,1.7,0,0,1-1.223-1.829,1.7,1.7,0,0,0-.631-1.525,1.7,1.7,0,0,1-.429-2.158,1.7,1.7,0,0,0,0-1.65,1.7,1.7,0,0,1,.429-2.158,1.7,1.7,0,0,0,.631-1.525,1.7,1.7,0,0,1,1.223-1.83A1.693,1.693,0,0,0,19.662,14.5,1.714,1.714,0,0,1,21.3,13.262c.064,0,.128,0,.192.011a1.659,1.659,0,0,0,.191.011,1.693,1.693,0,0,0,1.333-.642,1.7,1.7,0,0,1,2.158-.429,1.71,1.71,0,0,0,1.651,0,1.7,1.7,0,0,1,2.157.429,1.705,1.705,0,0,0,1.525.631,1.894,1.894,0,0,1,.192-.011A1.714,1.714,0,0,1,32.336,14.5,1.691,1.691,0,0,0,33.5,15.663a1.7,1.7,0,0,1,1.222,1.83,1.7,1.7,0,0,0,.632,1.525,1.7,1.7,0,0,1,.429,2.157,1.694,1.694,0,0,0,0,1.651,1.7,1.7,0,0,1-.429,2.158,1.69,1.69,0,0,0-.632,1.524,1.7,1.7,0,0,1-1.222,1.83A1.7,1.7,0,0,0,32.336,29.5a1.7,1.7,0,0,1-1.83,1.222c-.063-.006-.127-.011-.192-.011a1.7,1.7,0,0,0-1.333.643,1.705,1.705,0,0,1-2.157.429Zm2.034-5.022h1.906V24.859H28.859Zm-7.625,0H23.14V24.859H21.234Zm3.812-3.812h1.906V21.047H25.046Zm3.812-3.812h1.906V17.234H28.859Zm-7.625,0H23.14V17.234H21.234Z"/></svg>