<svg xmlns="http://www.w3.org/2000/svg" viewBox="0 0 60 40"><defs><style>.a{fill:none;}.b{fill:#1a525c;}.c{fill:#00adee;}.d{fill:#fff;}.e{fill:#00b1c5;}</style></defs><g transform="translate(-131 -165.256)"><path class="a" d="M0-295.117H60v-40H0Z" transform="translate(131 500.373)"/><g transform="translate(133.641 173.13)"><path class="b" d="M-.692-5.393C1.359.242,4.248,5.526-1.059,12.248c-.8,1.007-.337,1.211.264,1.058C3.6,12.194,6.251,9.492,8.317,6.9c.915.287,3.374,1.213,4.5,1.537l-1.589.741s-2.014.954-1.059,2.013c2.141,2.232,8.794-1.165,8.794-1.165A63.872,63.872,0,0,0,33.9,11.718s-4.889,2.585-4.34,4.193c.437,1.28,3.7,1.211,4.976-.166a26.883,26.883,0,0,0,2.212-3.861c7.113-.107,13.642-1.758,17.424-6.4-.227-2.011-4.792-10.5-14.547-12.033C32.845-14.029,23.9-11.285,23.734-10c-.213,1.589,1.483,3.92,1.483,3.92C18.859-5.447,9.65,1.451,8.269,2.429,6.357-2.162.794-6.876-.9-6.505c-.353.078.088.781.209,1.112" transform="translate(1.484 11.567)"/></g><g transform="translate(175.402 183.061)"><path class="c" d="M0-2.3A2.824,2.824,0,0,1,2.979-4.94,2.824,2.824,0,0,1,5.957-2.3,2.825,2.825,0,0,1,2.979.336,2.825,2.825,0,0,1,0-2.3" transform="translate(0 4.94)"/></g><g transform="translate(175.402 183.061)"><path class="c" d="M0-2.3A2.824,2.824,0,0,1,2.979-4.94,2.824,2.824,0,0,1,5.957-2.3,2.825,2.825,0,0,1,2.979.336,2.825,2.825,0,0,1,0-2.3" transform="translate(0 4.94)"/></g><g transform="translate(145.904 182.269)"><path class="c" d="M0-5.677S21.745.886,24.318-3.618c0,0-1.77-5.657,1.209-8.558,0,0-3.31,8.7,4.3,11.076,0,0-12.95,3.862-29.829-4.577" transform="translate(0 12.176)"/></g><g transform="translate(145.904 182.269)"><path class="c" d="M0-5.677S21.745.886,24.318-3.618c0,0-1.77-5.657,1.209-8.558,0,0-3.31,8.7,4.3,11.076,0,0-12.95,3.862-29.829-4.577" transform="translate(0 12.176)"/></g><g transform="translate(175.402 183.061)"><path class="d" d="M0-2.3A2.825,2.825,0,0,0,2.979.336,2.825,2.825,0,0,0,5.957-2.3,2.824,2.824,0,0,0,2.979-4.94,2.824,2.824,0,0,0,0-2.3" transform="translate(0 4.94)"/></g><g transform="translate(176.56 184.247)"><path class="d" d="M0-1.267a1.667,1.667,0,0,1,1.821-1.45,1.669,1.669,0,0,1,1.821,1.45A1.669,1.669,0,0,1,1.821.184,1.667,1.667,0,0,1,0-1.267" transform="translate(0 2.717)"/></g><g transform="translate(145.903 182.27)"><path class="d" d="M-21.243-7.476s-1.77-5.657,1.209-8.558c0,0-3.31,8.7,4.3,11.076,0,0-12.95,3.861-29.829-4.577,0,0,21.745,6.563,24.318,2.059" transform="translate(45.561 16.034)"/></g><g transform="translate(176.559 184.248)"><path class="e" d="M-1.591,0A1.668,1.668,0,0,1,.23,1.45,1.668,1.668,0,0,1-1.591,2.9,1.668,1.668,0,0,1-3.412,1.45,1.668,1.668,0,0,1-1.591,0" transform="translate(3.412)"/></g></g></svg>