<svg xmlns="http://www.w3.org/2000/svg" viewBox="0 0 60 40"><defs><style>.cls-3{fill:#00adee}.cls-4{fill:#fff}</style></defs><g id="Group_57" data-name="Group 57" transform="translate(-131 -165.256)"><path id="Path_21" data-name="Path 21" d="M0-295.117h60v-40H0z" transform="translate(131 500.373)" fill="none"/><g id="Group_43" data-name="Group 43" transform="translate(133.641 173.13)"><path id="Path_3" data-name="Path 3" d="M-.692-5.393C1.359.242 4.248 5.526-1.059 12.248c-.8 1.007-.337 1.211.264 1.058C3.6 12.194 6.251 9.492 8.317 6.9c.915.287 3.374 1.213 4.5 1.537l-1.589.741s-2.014.954-1.059 2.013c2.141 2.232 8.794-1.165 8.794-1.165A63.872 63.872 0 0 0 33.9 11.718s-4.889 2.585-4.34 4.193c.437 1.28 3.7 1.211 4.976-.166a26.883 26.883 0 0 0 2.212-3.861c7.113-.107 13.642-1.758 17.424-6.4-.227-2.011-4.792-10.5-14.547-12.033-6.78-7.48-15.725-4.736-15.891-3.451-.213 1.589 1.483 3.92 1.483 3.92-6.358.633-15.567 7.531-16.948 8.509C6.357-2.162.794-6.876-.9-6.505c-.353.078.088.781.209 1.112" transform="translate(1.484 11.567)" fill="#1a525c"/></g><g id="Group_50" data-name="Group 50" transform="translate(175.402 183.061)"><path id="Path_4" data-name="Path 4" class="cls-3" d="M0-2.3a2.824 2.824 0 0 1 2.979-2.64A2.824 2.824 0 0 1 5.957-2.3 2.825 2.825 0 0 1 2.979.336 2.825 2.825 0 0 1 0-2.3" transform="translate(0 4.94)"/></g><g id="Group_51" data-name="Group 51" transform="translate(175.402 183.061)"><path id="Path_5" data-name="Path 5" class="cls-3" d="M0-2.3a2.824 2.824 0 0 1 2.979-2.64A2.824 2.824 0 0 1 5.957-2.3 2.825 2.825 0 0 1 2.979.336 2.825 2.825 0 0 1 0-2.3" transform="translate(0 4.94)"/></g><g id="Group_46" data-name="Group 46" transform="translate(145.904 182.269)"><path id="Path_6" data-name="Path 6" class="cls-3" d="M0-5.677S21.745.886 24.318-3.618c0 0-1.77-5.657 1.209-8.558 0 0-3.31 8.7 4.3 11.076 0 0-12.95 3.862-29.829-4.577" transform="translate(0 12.176)"/></g><g id="Group_47" data-name="Group 47" transform="translate(145.904 182.269)"><path id="Path_7" data-name="Path 7" class="cls-3" d="M0-5.677S21.745.886 24.318-3.618c0 0-1.77-5.657 1.209-8.558 0 0-3.31 8.7 4.3 11.076 0 0-12.95 3.862-29.829-4.577" transform="translate(0 12.176)"/></g><g id="Group_52" data-name="Group 52" transform="translate(175.402 183.061)"><path id="Path_8" data-name="Path 8" class="cls-4" d="M0-2.3A2.825 2.825 0 0 0 2.979.336 2.825 2.825 0 0 0 5.957-2.3a2.824 2.824 0 0 0-2.978-2.64A2.824 2.824 0 0 0 0-2.3" transform="translate(0 4.94)"/></g><g id="Group_53" data-name="Group 53" transform="translate(176.56 184.247)"><path id="Path_9" data-name="Path 9" class="cls-4" d="M0-1.267a1.667 1.667 0 0 1 1.821-1.45 1.669 1.669 0 0 1 1.821 1.45A1.669 1.669 0 0 1 1.821.184 1.667 1.667 0 0 1 0-1.267" transform="translate(0 2.717)"/></g><g id="Group_48" data-name="Group 48" transform="translate(145.903 182.27)"><path id="Path_10" data-name="Path 10" class="cls-4" d="M-21.243-7.476s-1.77-5.657 1.209-8.558c0 0-3.31 8.7 4.3 11.076 0 0-12.95 3.861-29.829-4.577 0 0 21.745 6.563 24.318 2.059" transform="translate(45.561 16.034)"/></g><g id="Group_54" data-name="Group 54" transform="translate(176.559 184.248)"><path id="Path_11" data-name="Path 11" d="M-1.591 0A1.668 1.668 0 0 1 .23 1.45 1.668 1.668 0 0 1-1.591 2.9a1.668 1.668 0 0 1-1.821-1.45A1.668 1.668 0 0 1-1.591 0" transform="translate(3.412)" fill="#00b1c5"/></g></g></svg>