<svg xmlns="http://www.w3.org/2000/svg" viewBox="0 0 273.221 129.954"><defs><style>.a{fill:#1a525c;}.b{fill:#00adee;}.c,.e,.f{fill:#fff;}.d{fill:#00b1c5;}.e{fill-rule:evenodd;}.f{font-size:57px;font-family:Nunito-Bold, Nunito;font-weight:700;}</style></defs><g transform="translate(-1253.149 -318.48)"><g transform="translate(1311.302 318.48)"><path class="a" d="M-.475-3.7c2.614,7.18,6.294,13.915-.468,22.48-1.013,1.283-.43,1.543.336,1.349,5.6-1.418,8.979-4.86,11.612-8.168,1.166.366,4.3,1.546,5.738,1.958l-2.025.945s-2.566,1.215-1.35,2.566c2.729,2.844,11.207-1.484,11.207-1.484a81.392,81.392,0,0,0,19.037,2.159s-6.23,3.295-5.53,5.343c.557,1.632,4.72,1.543,6.341-.212a34.257,34.257,0,0,0,2.819-4.92c9.064-.136,17.384-2.24,22.2-8.154C69.155,7.6,63.337-3.211,50.907-5.171c-8.645-9.534-20.039-6.036-20.256-4.4-.272,2.025,1.889,5,1.889,5-8.1.81-19.837,9.6-21.6,10.846C8.508.418,1.419-5.59-.741-5.117c-.45.1.112,1,.267,1.417" transform="translate(1.484 11.567)"/></g><g transform="translate(1364.518 331.135)"><path class="b" d="M0-1.58A3.6,3.6,0,0,1,3.8-4.94,3.6,3.6,0,0,1,7.591-1.58,3.6,3.6,0,0,1,3.8,1.783,3.6,3.6,0,0,1,0-1.58" transform="translate(0 4.94)"/></g><g transform="translate(1364.518 331.135)"><path class="b" d="M0-1.58A3.6,3.6,0,0,1,3.8-4.94,3.6,3.6,0,0,1,7.591-1.58,3.6,3.6,0,0,1,3.8,1.783,3.6,3.6,0,0,1,0-1.58" transform="translate(0 4.94)"/></g><g transform="translate(1326.928 330.127)"><path class="b" d="M0-3.894S27.709,4.469,30.988-1.27c0,0-2.256-7.208,1.541-10.906,0,0-4.218,11.092,5.482,14.115,0,0-16.5,4.921-38.011-5.833" transform="translate(0 12.176)"/></g><g transform="translate(1326.928 330.127)"><path class="b" d="M0-3.894S27.709,4.469,30.988-1.27c0,0-2.256-7.208,1.541-10.906,0,0-4.218,11.092,5.482,14.115,0,0-16.5,4.921-38.011-5.833" transform="translate(0 12.176)"/></g><g transform="translate(1364.518 331.135)"><path class="c" d="M0-1.58A3.6,3.6,0,0,0,3.8,1.783,3.6,3.6,0,0,0,7.591-1.58,3.6,3.6,0,0,0,3.8-4.94,3.6,3.6,0,0,0,0-1.58" transform="translate(0 4.94)"/></g><g transform="translate(1365.993 332.647)"><path class="c" d="M0-.869A2.125,2.125,0,0,1,2.321-2.717,2.126,2.126,0,0,1,4.641-.869,2.126,2.126,0,0,1,2.321.98,2.125,2.125,0,0,1,0-.869" transform="translate(0 2.717)"/></g><g transform="translate(1326.928 330.127)"><path class="c" d="M-14.573-5.128s-2.255-7.209,1.541-10.906c0,0-4.218,11.091,5.483,14.115,0,0-16.5,4.92-38.012-5.833,0,0,27.71,8.363,30.988,2.624" transform="translate(45.561 16.034)"/></g><g transform="translate(1365.993 332.648)"><path class="d" d="M-1.091,0a2.126,2.126,0,0,1,2.32,1.848A2.126,2.126,0,0,1-1.091,3.7,2.125,2.125,0,0,1-3.412,1.848,2.125,2.125,0,0,1-1.091,0" transform="translate(3.412)"/></g><g transform="translate(1267.386 365.993)"><path class="e" d="M0-2.726l3.5,2.1s.2-.36.527-.888l1.237-1.9.66-1.016.617-.859.6-.837-3.3-2.395L3.2-7.64l-.65.905-.7,1.07L.554-3.66,0-2.726" transform="translate(0 8.523)"/></g><g transform="translate(1261.777 376.608)"><path class="e" d="M0-2.959,3.764-1.382S4.374-2.924,5.1-4.411c.355-.747.692-1.5.973-2.057s.48-.915.48-.915L2.929-9.252l-.5.961c-.3.581-.649,1.374-1.021,2.158C.639-4.573,0-2.959,0-2.959" transform="translate(0 9.252)"/></g><g transform="translate(1257.752 387.999)"><path class="e" d="M0-3.111l3.935,1.08s.411-1.613.936-3.189L5.557-7.4l.354-.974L2.061-9.727,1.692-8.708.975-6.436C.429-4.79,0-3.111,0-3.111" transform="translate(0 9.727)"/></g><g transform="translate(1293.448 341.965)"><path class="e" d="M0-1.593,2.14,1.882l.887-.526C3.564,1.047,4.258.6,4.988.213l2-1.074c.541-.3.918-.471.918-.471L6.073-4.979s-.4.18-.967.5L3-3.352c-.767.409-1.5.879-2.066,1.2L0-1.593" transform="translate(0 4.979)"/></g><g transform="translate(1283.394 348.418)"><path class="e" d="M0-2.024,2.666,1.065,3.444.389c.46-.413,1.125-.9,1.766-1.421S6.5-2.061,7.008-2.411l.836-.6L5.464-6.329l-.882.636c-.537.37-1.217.913-1.9,1.455S1.308-3.172.821-2.738L0-2.024" transform="translate(0 6.329)"/></g><g transform="translate(1274.661 356.436)"><path class="e" d="M0-2.412,3.126.211,5.3-2.268,6.865-3.906c.426-.448.716-.741.716-.741L4.7-7.54s-.3.31-.756.781L2.293-5.029C1.133-3.732,0-2.412,0-2.412" transform="translate(0 7.54)"/></g><g transform="translate(1304.612 337.203)"><path class="e" d="M0-1.14,1.58,2.623s.375-.175.952-.4l2.121-.816C5.419,1.094,6.213.855,6.8.649L7.776.316,6.51-3.563l-1.028.348c-.614.217-1.445.469-2.251.8L1-1.56c-.607.236-1,.42-1,.42" transform="translate(0 3.563)"/></g><g transform="translate(1253.149 370.435)"><text class="f" transform="translate(0 58)"><tspan x="0" y="0">happ</tspan></text><text class="f" transform="translate(134.221 58)"><tspan x="0" y="0">yhols</tspan></text></g></g></svg>