<?xml version="1.0" standalone="no"?>
<!DOCTYPE svg PUBLIC "-//W3C//DTD SVG 20010904//EN"
 "http://www.w3.org/TR/2001/REC-SVG-20010904/DTD/svg10.dtd">
<svg version="1.0" xmlns="http://www.w3.org/2000/svg"
 width="700.000000pt" height="700.000000pt" viewBox="0 0 700.000000 700.000000"
 preserveAspectRatio="xMidYMid meet">
<metadata>
Created by potrace 1.11, written by Peter Selinger 2001-2013
</metadata>
<g transform="translate(0.000000,700.000000) scale(0.100000,-0.100000)"
fill="#000000" stroke="none">
<path d="M3748 5495 c-2 -1 -32 -5 -68 -8 -86 -8 -159 -23 -250 -54 -84 -28
-124 -50 -159 -87 -22 -23 -23 -31 -18 -88 4 -35 8 -72 11 -83 11 -52 58 -152
112 -242 24 -39 44 -74 44 -76 0 -3 -8 -4 -17 -3 -28 4 -221 -39 -329 -74
-408 -133 -883 -392 -1462 -798 -90 -63 -165 -113 -166 -111 -2 2 -25 46 -50
97 -43 86 -165 274 -218 338 -232 276 -478 491 -658 570 -64 29 -148 40 -156
20 -5 -14 -7 -9 101 -291 81 -211 163 -449 171 -492 3 -15 7 -30 9 -34 6 -9
35 -144 42 -189 2 -19 8 -59 12 -89 9 -55 7 -285 -3 -352 -29 -209 -136 -451
-302 -679 -33 -47 -66 -95 -73 -107 -26 -51 -4 -79 53 -69 44 8 192 55 222 71
16 8 32 15 37 15 9 0 145 67 202 100 178 101 441 337 578 517 18 23 37 43 43
43 6 0 53 -15 105 -34 52 -18 165 -57 252 -86 87 -29 156 -54 153 -57 -2 -3
-46 -24 -97 -48 -162 -77 -217 -124 -226 -196 -5 -37 -2 -43 39 -83 142 -136
477 -97 938 109 l75 33 85 -19 c86 -19 426 -83 490 -92 19 -3 58 -9 85 -12 28
-4 60 -8 71 -10 12 -2 48 -6 80 -10 33 -3 73 -8 89 -10 17 -2 73 -7 125 -10
52 -4 111 -9 130 -11 19 -1 118 -6 220 -10 166 -6 265 -10 340 -13 21 -1 16
-6 -30 -32 -183 -103 -376 -259 -426 -345 -66 -113 1 -197 169 -213 150 -14
308 38 389 128 53 59 136 203 254 439 0 1 43 4 95 7 246 13 290 16 374 26 557
63 977 213 1310 468 73 55 255 238 255 255 0 31 -36 130 -82 221 -137 276
-367 549 -640 758 -79 60 -239 167 -251 167 -3 0 -31 15 -64 33 -32 18 -78 41
-103 51 -25 11 -65 28 -89 39 -52 22 -157 57 -261 86 -73 19 -96 25 -170 37
-24 4 -50 21 -85 58 -95 98 -275 243 -363 294 -178 101 -406 188 -562 213 -36
5 -78 12 -95 15 -31 6 -282 14 -287 9z"/>
</g>
</svg>
